<svg version="1.1" viewBox="0.0 0.0 672.0 539.5196850393701" fill="none" stroke="none" stroke-linecap="square" stroke-miterlimit="10" xmlns:xlink="http://www.w3.org/1999/xlink" xmlns="http://www.w3.org/2000/svg"><clipPath id="p.0"><path d="m0 0l672.0 0l0 539.5197l-672.0 0l0 -539.5197z" clip-rule="nonzero"/></clipPath><g clip-path="url(#p.0)"><path fill="#ffffff" d="m0 0l672.0 0l0 539.5197l-672.0 0z" fill-rule="evenodd"/><path fill="#000000" fill-opacity="0.0" d="m250.72665 291.62018l-171.90561 40.60901l0 0l-1.5646439 0.6644287l-1.5039597 0.9213257l-1.449173 1.2031555l-1.0928345 1.4138184l-0.8385925 1.3419495l-0.15089417 1.7572937l-0.15942383 1.7711487l0.10597992 1.6966248l35.21102 149.06186l0 0l0.6644058 1.5647278l0.932457 1.5014038l0.9239197 1.5151978l1.3504257 0.8248291l1.6073074 0.76416016l1.8343658 0.42752075l1.7598801 0.16207886l1.6965637 -0.10595703l171.90562 -40.60904l0 0l1.5646362 -0.6644287l1.5013123 -0.9324646l1.4491882 -1.203186l1.095459 -1.4026184l0.8385925 -1.3419495l0.1482544 -1.7684937l0.16207886 -1.7599487l-0.10598755 -1.6966248l-35.21103 -149.06186l0 0l-0.6643982 -1.5647278l-0.9350891 -1.5125732l-0.92129517 -1.5040283l-1.3504333 -0.8248596l-1.6099243 -0.7753296l-1.8343811 -0.42749023l-1.7572327 -0.15093994l-1.6965637 0.10598755l0 0z" fill-rule="evenodd"/><path stroke="#f67031" stroke-width="4.0" stroke-linejoin="round" stroke-linecap="round" d="m250.72665 291.62018l-171.90561 40.60901l0 0l-1.5646439 0.6644287l-1.5039597 0.9213257l-1.449173 1.2031555l-1.0928345 1.4138184l-0.8385925 1.3419495l-0.15089417 1.7572937l-0.15942383 1.7711487l0.10597992 1.6966248l35.21102 149.06186l0 0l0.6644058 1.5647278l0.932457 1.5014038l0.9239197 1.5151978l1.3504257 0.8248291l1.6073074 0.76416016l1.8343658 0.42752075l1.7598801 0.16207886l1.6965637 -0.10595703l171.90562 -40.60904l0 0l1.5646362 -0.6644287l1.5013123 -0.9324646l1.4491882 -1.203186l1.095459 -1.4026184l0.8385925 -1.3419495l0.1482544 -1.7684937l0.16207886 -1.7599487l-0.10598755 -1.6966248l-35.21103 -149.06186l0 0l-0.6643982 -1.5647278l-0.9350891 -1.5125732l-0.92129517 -1.5040283l-1.3504333 -0.8248596l-1.6099243 -0.7753296l-1.8343811 -0.42749023l-1.7572327 -0.15093994l-1.6965637 0.10598755l0 0z" fill-rule="evenodd"/><path fill="#000000" fill-opacity="0.0" d="m285.30322 447.73038l-167.5499 39.58008l-34.184715 -144.7171l167.5499 -39.58008l34.184708 144.7171z" fill-rule="evenodd"/><path stroke="#f67031" stroke-width="4.0" stroke-linejoin="round" stroke-linecap="round" d="m285.30322 447.73038l-167.5499 39.58008l-34.184715 -144.7171l167.5499 -39.58008l34.184708 144.7171z" fill-rule="evenodd"/><path fill="#000000" fill-opacity="0.0" d="m202.55215 430.52203l11.797806 -26.63095l0 0l0.8385925 -1.3419495l1.1066437 -1.4052734l1.2221222 -0.8665161l1.6417694 -0.3878479l1.3513794 -0.31924438l1.7598877 0.16210938l1.6184692 0.7615051l1.3504333 0.8248596l48.84781 39.01422" fill-rule="evenodd"/><path stroke="#f67031" stroke-width="4.0" stroke-linejoin="round" stroke-linecap="round" d="m202.55215 430.52203l11.797806 -26.63095l0 0l0.8385925 -1.3419495l1.1066437 -1.4052734l1.2221222 -0.8665161l1.6417694 -0.3878479l1.3513794 -0.31924438l1.7598877 0.16210938l1.6184692 0.7615051l1.3504333 0.8248596l48.84781 39.01422" fill-rule="evenodd"/><path fill="#000000" fill-opacity="0.0" d="m116.12087 440.31473l22.749199 -49.606842l0 0l0.8274231 -1.3392944l1.1040039 -1.4164429l1.2359161 -0.8580017l1.6306 -0.38519287l1.3625641 -0.3218689l1.7572479 0.15090942l1.621109 0.7727051l1.3392639 0.82748413l78.63736 62.990753" fill-rule="evenodd"/><path stroke="#f67031" stroke-width="4.0" stroke-linejoin="round" stroke-linecap="round" d="m116.12087 440.31473l22.749199 -49.606842l0 0l0.8274231 -1.3392944l1.1040039 -1.4164429l1.2359161 -0.8580017l1.6306 -0.38519287l1.3625641 -0.3218689l1.7572479 0.15090942l1.621109 0.7727051l1.3392639 0.82748413l78.63736 62.990753" fill-rule="evenodd"/><path fill="#000000" fill-opacity="0.0" d="m217.29924 381.08386l0 0l-2.1778564 0.51446533l-2.2411804 0.24639893l-2.307129 -0.032806396l-2.0912476 -0.3668213l-2.1024017 -0.36416626l-2.1572113 -0.6460571l-1.9498291 -0.9662781l-1.9636536 -0.97476196l-1.7365875 -1.3114624l-1.7477417 -1.3088074l-1.5345001 -1.6539612l-1.2749786 -1.7035217l-1.2664642 -1.7172852l-1.0505524 -2.0513306l-0.7277374 -1.8327637l-0.5777893 -2.446045l0 0l-0.51446533 -2.177948l-0.23526001 -2.243927l0.08757019 -2.02536l0.30082703 -2.370575l0.37532043 -2.105133l0.69815063 -1.8865967l0.91404724 -2.2206116l1.0295105 -1.6818542l1.3198853 -1.7504578l1.3087311 -1.7478027l1.6427307 -1.5319214l1.7172089 -1.2664795l1.7060547 -1.263855l2.048584 -1.0617676l2.1145325 -0.78253174l2.111908 -0.7937012l0 0l2.243805 -0.23522949l2.230011 -0.24377441l2.3071442 0.032806396l2.1024017 0.36419678l2.0912476 0.3668213l1.8865204 0.69818115l2.2316895 0.9114685l1.684433 1.040741l1.9524841 0.9774475l1.5318451 1.6428223l1.4797211 1.3721008l1.266449 1.7173157l1.329773 1.9853516l0.9846039 1.7720947l0.7936859 2.11203l0.7825165 2.114624l0 0l0.30973816 2.5093384l0.16931152 1.9646912l-0.021621704 2.304596l-0.364151 2.1025085l-0.3667755 2.091339l-0.6433716 2.168457l-0.69815063 1.8865967l-1.2454071 2.0158691l-1.0406799 1.6845093l-1.5905762 1.8025818l-1.3720398 1.4797668l-1.7060547 1.263855l-1.7172089 1.2664795l-2.048584 1.0617676l-2.1033783 0.7798767l-2.1778564 0.51449585l0 0" fill-rule="evenodd"/><path stroke="#f67031" stroke-width="4.0" stroke-linejoin="round" stroke-linecap="round" d="m217.29924 381.08386l0 0l-2.1778564 0.51446533l-2.2411804 0.24639893l-2.307129 -0.032806396l-2.0912476 -0.3668213l-2.1024017 -0.36416626l-2.1572113 -0.6460571l-1.9498291 -0.9662781l-1.9636536 -0.97476196l-1.7365875 -1.3114624l-1.7477417 -1.3088074l-1.5345001 -1.6539612l-1.2749786 -1.7035217l-1.2664642 -1.7172852l-1.0505524 -2.0513306l-0.7277374 -1.8327637l-0.5777893 -2.446045l0 0l-0.51446533 -2.177948l-0.23526001 -2.243927l0.08757019 -2.02536l0.30082703 -2.370575l0.37532043 -2.105133l0.69815063 -1.8865967l0.91404724 -2.2206116l1.0295105 -1.6818542l1.3198853 -1.7504578l1.3087311 -1.7478027l1.6427307 -1.5319214l1.7172089 -1.2664795l1.7060547 -1.263855l2.048584 -1.0617676l2.1145325 -0.78253174l2.111908 -0.7937012l0 0l2.243805 -0.23522949l2.230011 -0.24377441l2.3071442 0.032806396l2.1024017 0.36419678l2.0912476 0.3668213l1.8865204 0.69818115l2.2316895 0.9114685l1.684433 1.040741l1.9524841 0.9774475l1.5318451 1.6428223l1.4797211 1.3721008l1.266449 1.7173157l1.329773 1.9853516l0.9846039 1.7720947l0.7936859 2.11203l0.7825165 2.114624l0 0l0.30973816 2.5093384l0.16931152 1.9646912l-0.021621704 2.304596l-0.364151 2.1025085l-0.3667755 2.091339l-0.6433716 2.168457l-0.69815063 1.8865967l-1.2454071 2.0158691l-1.0406799 1.6845093l-1.5905762 1.8025818l-1.3720398 1.4797668l-1.7060547 1.263855l-1.7172089 1.2664795l-2.048584 1.0617676l-2.1033783 0.7798767l-2.1778564 0.51449585l0 0" fill-rule="evenodd"/><path fill="#000000" fill-opacity="0.0" d="m588.29333 320.73492l-175.38803 -20.967041l0 0l-1.6976929 0.085998535l-1.7290039 0.3480835l-1.7744751 0.6316223l-1.5122681 0.9519043l-1.2488098 0.9718323l-0.7458191 1.5983276l-0.75860596 1.6083679l-0.48373413 1.6296387l-18.179993 152.08136l0 0l0.085998535 1.6977539l0.35943604 1.7304688l0.3467102 1.7404785l0.9845581 1.2388611l1.2466431 1.2701721l1.575592 1.032074l1.5968628 0.7572632l1.6295776 0.48376465l175.388 20.967041l0 0l1.6976929 -0.085998535l1.7304077 -0.35946655l1.7744751 -0.6316223l1.5108643 -0.94052124l1.2488403 -0.9718323l0.7471924 -1.6097107l0.75720215 -1.5969849l0.48376465 -1.6296387l18.179993 -152.08136l0 0l-0.085998535 -1.6977539l-0.35809326 -1.7418518l-0.3480835 -1.7290955l-0.9845581 -1.2388611l-1.2452393 -1.2815552l-1.5756226 -1.0321045l-1.5982056 -0.7458496l-1.6295776 -0.48376465l0 0z" fill-rule="evenodd"/><path stroke="#f67031" stroke-width="4.0" stroke-linejoin="round" stroke-linecap="round" d="m588.29333 320.73492l-175.38803 -20.967041l0 0l-1.6976929 0.085998535l-1.7290039 0.3480835l-1.7744751 0.6316223l-1.5122681 0.9519043l-1.2488098 0.9718323l-0.7458191 1.5983276l-0.75860596 1.6083679l-0.48373413 1.6296387l-18.179993 152.08136l0 0l0.085998535 1.6977539l0.35943604 1.7304688l0.3467102 1.7404785l0.9845581 1.2388611l1.2466431 1.2701721l1.575592 1.032074l1.5968628 0.7572632l1.6295776 0.48376465l175.388 20.967041l0 0l1.6976929 -0.085998535l1.7304077 -0.35946655l1.7744751 -0.6316223l1.5108643 -0.94052124l1.2488403 -0.9718323l0.7471924 -1.6097107l0.75720215 -1.5969849l0.48376465 -1.6296387l18.179993 -152.08136l0 0l-0.085998535 -1.6977539l-0.35809326 -1.7418518l-0.3480835 -1.7290955l-0.9845581 -1.2388611l-1.2452393 -1.2815552l-1.5756226 -1.0321045l-1.5982056 -0.7458496l-1.6295776 -0.48376465l0 0z" fill-rule="evenodd"/><path fill="#000000" fill-opacity="0.0" d="m567.0945 479.2169l-170.94406 -20.435791l17.650085 -147.64859l170.94406 20.435791l-17.650085 147.64859z" fill-rule="evenodd"/><path stroke="#f67031" stroke-width="4.0" stroke-linejoin="round" stroke-linecap="round" d="m567.0945 479.2169l-170.94406 -20.435791l17.650085 -147.64859l170.94406 20.435791l-17.650085 147.64859z" fill-rule="evenodd"/><path fill="#000000" fill-opacity="0.0" d="m495.30328 434.60782l20.233948 -20.95163l0 0l1.2487793 -0.9718323l1.5223389 -0.93914795l1.4454956 -0.3935547l1.6750488 0.20025635l1.3787231 0.16482544l1.5969238 0.75723267l1.2579956 1.2715454l0.9845581 1.2388306l32.458008 53.4299" fill-rule="evenodd"/><path stroke="#f67031" stroke-width="4.0" stroke-linejoin="round" stroke-linecap="round" d="m495.30328 434.60782l20.233948 -20.95163l0 0l1.2487793 -0.9718323l1.5223389 -0.93914795l1.4454956 -0.3935547l1.6750488 0.20025635l1.3787231 0.16482544l1.5969238 0.75723267l1.2579956 1.2715454l0.9845581 1.2388306l32.458008 53.4299" fill-rule="evenodd"/><path fill="#000000" fill-opacity="0.0" d="m410.77374 414.0887l38.416473 -38.761932l0 0l1.2374268 -0.9732361l1.5236511 -0.950531l1.4555664 -0.38079834l1.6636353 0.19888306l1.3901367 0.16619873l1.5982666 0.7458496l1.2566528 1.2829285l0.97317505 1.2374878l52.189056 86.186554" fill-rule="evenodd"/><path stroke="#f67031" stroke-width="4.0" stroke-linejoin="round" stroke-linecap="round" d="m410.77374 414.0887l38.416473 -38.761932l0 0l1.2374268 -0.9732361l1.5236511 -0.950531l1.4555664 -0.38079834l1.6636353 0.19888306l1.3901367 0.16619873l1.5982666 0.7458496l1.2566528 1.2829285l0.97317505 1.2374878l52.189056 86.186554" fill-rule="evenodd"/><path fill="#000000" fill-opacity="0.0" d="m526.14746 393.25314l0 0l-2.2219849 -0.26565552l-2.189331 -0.539093l-2.1552124 -0.8240051l-1.8376465 -1.063446l-1.84906 -1.0647888l-1.8036499 -1.3482971l-1.4987793 -1.5777283l-1.5088501 -1.5904541l-1.1798706 -1.8285522l-1.1912842 -1.829895l-0.872345 -2.080719l-0.6116333 -2.0379944l-0.59887695 -2.0480347l-0.28131104 -2.2874756l-0.05331421 -1.9712524l0.29833984 -2.4955444l0 0l0.265625 -2.2220764l0.5505066 -2.1880493l0.7785034 -1.8717957l1.0974426 -2.1226501l1.0761719 -1.8477783l1.3041687 -1.5315857l1.6217346 -1.7709961l1.5449219 -1.2254028l1.8412476 -1.1899719l1.829834 -1.1913452l2.0692139 -0.8737793l2.0479736 -0.5989075l2.036499 -0.60028076l2.2887573 -0.2927246l2.2546387 -0.007873535l2.2560425 -0.019256592l0 0l2.1879272 0.5505066l2.1779175 0.53778076l2.1552124 0.8239746l1.84906 1.0647888l1.8376465 1.063446l1.5314941 1.3042297l1.7823486 1.6231384l1.223938 1.556427l1.4974365 1.5891113l0.87371826 2.069336l0.9178467 1.7971802l0.59887695 2.0480347l0.5661621 2.3215332l0.31536865 2.002594l0.019226074 2.256134l0.007873535 2.2547607l0 0l-0.57177734 2.46286l-0.5164795 1.9031677l-0.81256104 2.1566772l-1.0647583 1.8491516l-1.0634155 1.8377686l-1.3496094 1.815094l-1.3041382 1.5315552l-1.8625488 1.4648438l-1.5563354 1.2240295l-2.1133423 1.1459045l-1.7971191 0.9178467l-2.03656 0.60028076l-2.0479126 0.5989075l-2.2887573 0.29275513l-2.2432861 0.009216309l-2.2219238 -0.265625l0 0" fill-rule="evenodd"/><path stroke="#f67031" stroke-width="4.0" stroke-linejoin="round" stroke-linecap="round" d="m526.14746 393.25314l0 0l-2.2219849 -0.26565552l-2.189331 -0.539093l-2.1552124 -0.8240051l-1.8376465 -1.063446l-1.84906 -1.0647888l-1.8036499 -1.3482971l-1.4987793 -1.5777283l-1.5088501 -1.5904541l-1.1798706 -1.8285522l-1.1912842 -1.829895l-0.872345 -2.080719l-0.6116333 -2.0379944l-0.59887695 -2.0480347l-0.28131104 -2.2874756l-0.05331421 -1.9712524l0.29833984 -2.4955444l0 0l0.265625 -2.2220764l0.5505066 -2.1880493l0.7785034 -1.8717957l1.0974426 -2.1226501l1.0761719 -1.8477783l1.3041687 -1.5315857l1.6217346 -1.7709961l1.5449219 -1.2254028l1.8412476 -1.1899719l1.829834 -1.1913452l2.0692139 -0.8737793l2.0479736 -0.5989075l2.036499 -0.60028076l2.2887573 -0.2927246l2.2546387 -0.007873535l2.2560425 -0.019256592l0 0l2.1879272 0.5505066l2.1779175 0.53778076l2.1552124 0.8239746l1.84906 1.0647888l1.8376465 1.063446l1.5314941 1.3042297l1.7823486 1.6231384l1.223938 1.556427l1.4974365 1.5891113l0.87371826 2.069336l0.9178467 1.7971802l0.59887695 2.0480347l0.5661621 2.3215332l0.31536865 2.002594l0.019226074 2.256134l0.007873535 2.2547607l0 0l-0.57177734 2.46286l-0.5164795 1.9031677l-0.81256104 2.1566772l-1.0647583 1.8491516l-1.0634155 1.8377686l-1.3496094 1.815094l-1.3041382 1.5315552l-1.8625488 1.4648438l-1.5563354 1.2240295l-2.1133423 1.1459045l-1.7971191 0.9178467l-2.03656 0.60028076l-2.0479126 0.5989075l-2.2887573 0.29275513l-2.2432861 0.009216309l-2.2219238 -0.265625l0 0" fill-rule="evenodd"/><path fill="#000000" fill-opacity="0.0" d="m324.95477 73.2711l0 102.323044l0 0l-0.13699341 1.5298615l-0.41671753 1.3871307l-0.69644165 1.2558441l-0.83343506 1.1074371l-1.1131287 0.8391266l-1.2501221 0.6907196l-1.387146 0.41671753l-1.3928528 0.14271545l-76.74371 0l0 0l-1.3928528 -0.14271545l-1.387146 -0.41671753l-1.2501373 -0.6907196l-1.1131287 -0.8391266l-0.83343506 -1.1074371l-0.6964264 -1.2558441l-0.41671753 -1.3871307l-0.13699341 -1.5298615l0 -102.323044l0 0l0.13699341 -1.5298538l0.41671753 -1.3928528l0.6964264 -1.2501373l0.83343506 -1.1131363l1.1131287 -0.8334274l1.2501373 -0.6964264l1.387146 -0.4167099l1.3928528 -0.13700104l76.74371 0l0 0l1.3928528 0.13700104l1.387146 0.4167099l1.2501221 0.6964264l1.1131287 0.8334274l0.83343506 1.1131363l0.69644165 1.2501373l0.41671753 1.3928528l0.13699341 1.5298538l0 0zm-45.598694 106.21617l0 0l0.97042847 -0.13699341l0.83914185 -0.27970886l0.83340454 -0.41671753l0.69644165 -0.5594177l0.55371094 -0.6907196l0.41671753 -0.83914185l0.2796936 -0.8334198l0.13702393 -0.97042847l0 0l-0.13702393 -0.97613525l-0.2796936 -0.83343506l-0.41671753 -0.8334198l-0.55371094 -0.6964264l-0.69644165 -0.55371094l-0.83340454 -0.41671753l-0.83914185 -0.27970886l-0.97042847 -0.13700867l0 0l-0.97042847 0.13700867l-0.83914185 0.27970886l-0.83343506 0.41671753l-0.69641113 0.55371094l-0.55371094 0.6964264l-0.41671753 0.8334198l-0.27972412 0.83343506l-0.13699341 0.97613525l0 0l0.13699341 0.97042847l0.27972412 0.8334198l0.41671753 0.83914185l0.55371094 0.6907196l0.69641113 0.5594177l0.83343506 0.41671753l0.83914185 0.27970886l0.97042847 0.13699341l0 0zm36.562286 -104.549324l-73.12459 0l0 91.619804l73.12459 0l0 -91.619804z" fill-rule="evenodd"/><path stroke="#f67031" stroke-width="1.2782152230971129" stroke-linejoin="round" stroke-linecap="round" d="m324.95477 73.2711l0 102.323044l0 0l-0.13699341 1.5298615l-0.41671753 1.3871307l-0.69644165 1.2558441l-0.83343506 1.1074371l-1.1131287 0.8391266l-1.2501221 0.6907196l-1.387146 0.41671753l-1.3928528 0.14271545l-76.74371 0l0 0l-1.3928528 -0.14271545l-1.387146 -0.41671753l-1.2501373 -0.6907196l-1.1131287 -0.8391266l-0.83343506 -1.1074371l-0.6964264 -1.2558441l-0.41671753 -1.3871307l-0.13699341 -1.5298615l0 -102.323044l0 0l0.13699341 -1.5298538l0.41671753 -1.3928528l0.6964264 -1.2501373l0.83343506 -1.1131363l1.1131287 -0.8334274l1.2501373 -0.6964264l1.387146 -0.4167099l1.3928528 -0.13700104l76.74371 0l0 0l1.3928528 0.13700104l1.387146 0.4167099l1.2501221 0.6964264l1.1131287 0.8334274l0.83343506 1.1131363l0.69644165 1.2501373l0.41671753 1.3928528l0.13699341 1.5298538l0 0zm-45.598694 106.21617l0 0l0.97042847 -0.13699341l0.83914185 -0.27970886l0.83340454 -0.41671753l0.69644165 -0.5594177l0.55371094 -0.6907196l0.41671753 -0.83914185l0.2796936 -0.8334198l0.13702393 -0.97042847l0 0l-0.13702393 -0.97613525l-0.2796936 -0.83343506l-0.41671753 -0.8334198l-0.55371094 -0.6964264l-0.69644165 -0.55371094l-0.83340454 -0.41671753l-0.83914185 -0.27970886l-0.97042847 -0.13700867l0 0l-0.97042847 0.13700867l-0.83914185 0.27970886l-0.83343506 0.41671753l-0.69641113 0.55371094l-0.55371094 0.6964264l-0.41671753 0.8334198l-0.27972412 0.83343506l-0.13699341 0.97613525l0 0l0.13699341 0.97042847l0.27972412 0.8334198l0.41671753 0.83914185l0.55371094 0.6907196l0.69641113 0.5594177l0.83343506 0.41671753l0.83914185 0.27970886l0.97042847 0.13699341l0 0zm36.562286 -104.549324l-73.12459 0l0 91.619804l73.12459 0l0 -91.619804z" fill-rule="evenodd"/><path fill="#000000" fill-opacity="0.0" d="m161.00427 81.48725l-37.23134 0l0 0l-1.0781174 0.10050964l-0.9815674 0.30574036l-0.88100433 0.51096344l-0.78445435 0.6114731l-0.5873337 0.81669617l-0.4907837 0.91721344l-0.29367065 1.0219193l-0.09654236 1.1224365l0 75.07328l0 0l0.09654236 1.1224365l0.29367065 1.0177307l0.4907837 0.921402l0.5873337 0.81251526l0.78445435 0.6156616l0.88100433 0.50675964l0.9815674 0.30574036l1.0781174 0.10470581l37.23134 0l0 0l1.0740967 -0.10470581l0.9815674 -0.30574036l0.88101196 -0.50675964l0.7844391 -0.6156616l0.5873413 -0.81251526l0.4907837 -0.921402l0.29367065 -1.0177307l0.09654236 -1.1224365l0 -75.07328l0 0l-0.09654236 -1.1224365l-0.29367065 -1.0219193l-0.4907837 -0.91721344l-0.5873413 -0.81669617l-0.7844391 -0.6114731l-0.88101196 -0.51096344l-0.9815674 -0.30574036l-1.0740967 -0.10050964l0 0zm-20.086014 4.0792923l2.936676 0l0 0l0.4907837 0.10051727l0.2936554 0.3099289l0.29367065 0.30573273l0.10057068 0.5067749l0 0l-0.10057068 0.41043854l-0.29367065 0.40625763l-0.2936554 0.20522308l-0.4907837 0.10050964l-2.936676 0l0 0l-0.4907837 -0.10050964l-0.29367065 -0.20522308l-0.29367065 -0.40625763l-0.09654236 -0.41043854l0 0l0.09654236 -0.5067749l0.29367065 -0.30573273l0.29367065 -0.3099289l0.4907837 -0.10051727l0 0zm1.468338 77.31816l0 0l-0.68388367 -0.1005249l-0.687912 -0.20521545l-0.58732605 -0.30574036l-0.4907837 -0.40625l-0.390213 -0.5109558l-0.29367065 -0.6114807l-0.1971283 -0.7161865l-0.09654236 -0.71199036l0 0l0.09654236 -0.71617126l0.1971283 -0.7120056l0.29367065 -0.61146545l0.390213 -0.5109558l0.4907837 -0.41044617l0.58732605 -0.30574036l0.687912 -0.20103455l0.68388367 -0.10470581l0 0l0.6878967 0.10470581l0.68388367 0.20103455l0.5873413 0.30574036l0.4907837 0.41044617l0.390213 0.5109558l0.29768372 0.61146545l0.19309998 0.7120056l0.10057068 0.71617126l0 0l-0.10057068 0.71199036l-0.19309998 0.7161865l-0.29768372 0.6114807l-0.390213 0.5109558l-0.4907837 0.40625l-0.5873413 0.30574036l-0.68388367 0.20521545l-0.6878967 0.1005249l0 0zm18.617676 -11.626419l-37.23134 0l0 -59.061836l37.23134 0l0 59.061836z" fill-rule="evenodd"/><path stroke="#f67031" stroke-width="1.2782152230971129" stroke-linejoin="round" stroke-linecap="round" d="m161.00427 81.48725l-37.23134 0l0 0l-1.0781174 0.10050964l-0.9815674 0.30574036l-0.88100433 0.51096344l-0.78445435 0.6114731l-0.5873337 0.81669617l-0.4907837 0.91721344l-0.29367065 1.0219193l-0.09654236 1.1224365l0 75.07328l0 0l0.09654236 1.1224365l0.29367065 1.0177307l0.4907837 0.921402l0.5873337 0.81251526l0.78445435 0.6156616l0.88100433 0.50675964l0.9815674 0.30574036l1.0781174 0.10470581l37.23134 0l0 0l1.0740967 -0.10470581l0.9815674 -0.30574036l0.88101196 -0.50675964l0.7844391 -0.6156616l0.5873413 -0.81251526l0.4907837 -0.921402l0.29367065 -1.0177307l0.09654236 -1.1224365l0 -75.07328l0 0l-0.09654236 -1.1224365l-0.29367065 -1.0219193l-0.4907837 -0.91721344l-0.5873413 -0.81669617l-0.7844391 -0.6114731l-0.88101196 -0.51096344l-0.9815674 -0.30574036l-1.0740967 -0.10050964l0 0zm-20.086014 4.0792923l2.936676 0l0 0l0.4907837 0.10051727l0.2936554 0.3099289l0.29367065 0.30573273l0.10057068 0.5067749l0 0l-0.10057068 0.41043854l-0.29367065 0.40625763l-0.2936554 0.20522308l-0.4907837 0.10050964l-2.936676 0l0 0l-0.4907837 -0.10050964l-0.29367065 -0.20522308l-0.29367065 -0.40625763l-0.09654236 -0.41043854l0 0l0.09654236 -0.5067749l0.29367065 -0.30573273l0.29367065 -0.3099289l0.4907837 -0.10051727l0 0zm1.468338 77.31816l0 0l-0.68388367 -0.1005249l-0.687912 -0.20521545l-0.58732605 -0.30574036l-0.4907837 -0.40625l-0.390213 -0.5109558l-0.29367065 -0.6114807l-0.1971283 -0.7161865l-0.09654236 -0.71199036l0 0l0.09654236 -0.71617126l0.1971283 -0.7120056l0.29367065 -0.61146545l0.390213 -0.5109558l0.4907837 -0.41044617l0.58732605 -0.30574036l0.687912 -0.20103455l0.68388367 -0.10470581l0 0l0.6878967 0.10470581l0.68388367 0.20103455l0.5873413 0.30574036l0.4907837 0.41044617l0.390213 0.5109558l0.29768372 0.61146545l0.19309998 0.7120056l0.10057068 0.71617126l0 0l-0.10057068 0.71199036l-0.19309998 0.7161865l-0.29768372 0.6114807l-0.390213 0.5109558l-0.4907837 0.40625l-0.5873413 0.30574036l-0.68388367 0.20521545l-0.6878967 0.1005249l0 0zm18.617676 -11.626419l-37.23134 0l0 -59.061836l37.23134 0l0 59.061836z" fill-rule="evenodd"/><path fill="#000000" fill-opacity="0.0" d="m458.2312 174.74957l0 29.994415l-21.313171 0l0 0l-1.7404785 0l-1.7303162 0.49873352l-1.4961853 0.9872589l-1.2315674 0.9974365l-0.99746704 1.2417145l-0.98727417 1.4859772l-0.49874878 1.7302551l0 1.7404327l91.71591 0l0 0l0 -1.7404327l-0.48858643 -1.7302551l-0.9974365 -1.4859772l-0.9873047 -1.2417145l-1.2416992 -0.9974365l-1.486023 -0.9872589l-1.7303467 -0.49873352l-1.740448 0l-21.313171 0l0 -29.994415" fill-rule="evenodd"/><path stroke="#f67031" stroke-width="1.2782152230971129" stroke-linejoin="round" stroke-linecap="round" d="m458.2312 174.74957l0 29.994415l-21.313171 0l0 0l-1.7404785 0l-1.7303162 0.49873352l-1.4961853 0.9872589l-1.2315674 0.9974365l-0.99746704 1.2417145l-0.98727417 1.4859772l-0.49874878 1.7302551l0 1.7404327l91.71591 0l0 0l0 -1.7404327l-0.48858643 -1.7302551l-0.9974365 -1.4859772l-0.9873047 -1.2417145l-1.2416992 -0.9974365l-1.486023 -0.9872589l-1.7303467 -0.49873352l-1.740448 0l-21.313171 0l0 -29.994415" fill-rule="evenodd"/><path fill="#000000" fill-opacity="0.0" d="m563.08716 35.443928l-177.98642 0l0 0l-0.9873047 0l-0.7430115 0.49872208l-0.98727417 0.24427032l-0.75320435 0.7429886l-0.4885559 0.7429924l-0.49871826 0.7429886l-0.24429321 0.9872627l-0.25445557 0.99744034l0 126.91907l0 0l0.25445557 0.98727417l0.24429321 0.9872589l0.49871826 0.75315857l0.4885559 0.7429962l0.75320435 0.7429962l0.98727417 0.2442627l0.7430115 0.49871826l0.9873047 0l177.98642 0l0 0l0.99749756 0l0.74298096 -0.49871826l0.9873047 -0.2442627l0.74298096 -0.7429962l0.4987793 -0.7429962l0.49871826 -0.75315857l0.2442627 -0.9872589l0.2442627 -0.98727417l0 -126.91907l0 0l-0.2442627 -0.99744034l-0.2442627 -0.9872627l-0.49871826 -0.7429886l-0.4987793 -0.7429924l-0.74298096 -0.7429886l-0.9873047 -0.24427032l-0.74298096 -0.49872208l-0.99749756 0l0 0zm-9.913574 121.95224l-158.14911 0l0 -107.082245l158.14911 0l0 107.082245z" fill-rule="evenodd"/><path stroke="#f67031" stroke-width="1.2782152230971129" stroke-linejoin="round" stroke-linecap="round" d="m563.08716 35.443928l-177.98642 0l0 0l-0.9873047 0l-0.7430115 0.49872208l-0.98727417 0.24427032l-0.75320435 0.7429886l-0.4885559 0.7429924l-0.49871826 0.7429886l-0.24429321 0.9872627l-0.25445557 0.99744034l0 126.91907l0 0l0.25445557 0.98727417l0.24429321 0.9872589l0.49871826 0.75315857l0.4885559 0.7429962l0.75320435 0.7429962l0.98727417 0.2442627l0.7430115 0.49871826l0.9873047 0l177.98642 0l0 0l0.99749756 0l0.74298096 -0.49871826l0.9873047 -0.2442627l0.74298096 -0.7429962l0.4987793 -0.7429962l0.49871826 -0.75315857l0.2442627 -0.9872589l0.2442627 -0.98727417l0 -126.91907l0 0l-0.2442627 -0.99744034l-0.2442627 -0.9872627l-0.49871826 -0.7429886l-0.4987793 -0.7429924l-0.74298096 -0.7429886l-0.9873047 -0.24427032l-0.74298096 -0.49872208l-0.99749756 0l0 0zm-9.913574 121.95224l-158.14911 0l0 -107.082245l158.14911 0l0 107.082245z" fill-rule="evenodd"/></g></svg>