<?xml version="1.0" encoding="utf-8"?>
<!-- Generator: Adobe Illustrator 15.0.0, SVG Export Plug-In . SVG Version: 6.00 Build 0)  -->
<!DOCTYPE svg PUBLIC "-//W3C//DTD SVG 1.1//EN" "http://www.w3.org/Graphics/SVG/1.1/DTD/svg11.dtd">
<svg version="1.1" id="Layer_1" xmlns="http://www.w3.org/2000/svg" xmlns:xlink="http://www.w3.org/1999/xlink" x="0px" y="0px"
	 width="2056.835px" height="361.239px" viewBox="-633.894 0 2056.835 361.239"
	 enable-background="new -633.894 0 2056.835 361.239" xml:space="preserve">
<g>
	<g>
		<path fill="#092E20" d="M807.65,34.71h38.146v176.572c-19.568,3.715-33.937,5.201-49.541,5.201
			c-46.57-0.003-70.845-21.055-70.845-61.432c0-38.891,25.762-64.155,65.643-64.155c6.191,0,10.897,0.493,16.597,1.979V34.71z
			 M807.65,123.59c-4.459-1.485-8.175-1.98-12.881-1.98c-19.32,0-30.469,11.892-30.469,32.697c0,20.314,10.652,31.459,30.223,31.459
			c4.209,0,7.678-0.246,13.127-0.989V123.59z"/>
		<path fill="#092E20" d="M906.482,93.62v88.429c0,30.47-2.229,45.084-8.916,57.717c-6.193,12.139-14.369,19.816-31.213,28.24
			l-35.423-16.844c16.846-7.929,25.019-14.861,30.22-25.518c5.45-10.896,7.188-23.531,7.188-56.724V93.62H906.482z M868.337,34.912
			h38.146v39.139h-38.146V34.912z"/>
		<path fill="#092E20" d="M929.524,102.289c16.847-7.924,32.945-11.392,50.532-11.392c19.569,0,32.449,5.2,38.147,15.356
			c3.219,5.697,4.209,13.127,4.209,28.983v77.53c-17.094,2.477-38.644,4.212-54.495,4.212c-31.952,0-46.322-11.149-46.322-35.919
			c0-26.755,19.073-39.139,65.893-43.104v-8.422c0-6.935-3.469-9.41-13.129-9.41c-14.118,0-29.973,3.963-44.837,11.642
			L929.524,102.289L929.524,102.289z M989.222,162.977c-25.268,2.477-33.44,6.44-33.44,16.35c0,7.429,4.707,10.897,15.11,10.897
			c5.697,0,10.897-0.495,18.33-1.731V162.977L989.222,162.977z"/>
		<path fill="#092E20" d="M1040.994,99.564c22.539-5.944,41.116-8.667,59.943-8.667c19.567,0,33.688,4.457,42.112,13.127
			c7.927,8.172,10.401,17.088,10.401,36.166v74.805h-38.146v-73.319c0-14.614-4.955-20.066-18.576-20.066
			c-5.202,0-9.909,0.496-17.591,2.725v90.66h-38.146V99.564H1040.994z"/>
		<path fill="#092E20" d="M1168.282,235.801c13.378,6.938,26.752,10.156,40.872,10.156c25.016,0,35.667-10.156,35.667-34.432
			c0-0.246,0-0.496,0-0.742c-7.432,3.715-14.862,5.2-24.77,5.2c-33.439,0-54.747-22.045-54.747-56.97
			c0-43.353,31.461-67.872,87.194-67.872c16.351,0,31.46,1.732,49.79,5.448l-13.062,27.515c-10.155-1.981-0.812-0.265-8.488-1.008
			v3.964l0.496,16.099l0.242,20.809c0.25,5.2,0.25,10.402,0.5,15.604c0,4.706,0,6.937,0,10.405c0,32.696-2.726,48.054-10.898,60.687
			c-11.893,18.58-32.449,27.744-61.68,27.744c-14.863,0-27.742-2.229-41.119-7.432v-35.176H1168.282L1168.282,235.801z
			 M1244.082,121.858c-0.496,0-0.989,0-1.239,0h-2.725c-7.428-0.249-16.099,1.732-22.047,5.447
			c-9.162,5.204-13.87,14.617-13.87,27.992c0,19.075,9.414,29.972,26.258,29.972c5.199,0,9.413-0.99,14.366-2.476v-2.728v-10.4
			c0-4.46-0.247-9.416-0.247-14.616l-0.246-17.587l-0.25-12.633V121.858L1244.082,121.858z"/>
		<path fill="#092E20" d="M1361.512,90.4c38.144,0,61.43,24.029,61.43,62.918c0,39.882-24.272,64.901-62.918,64.901
			c-38.148,0-61.68-24.029-61.68-62.67C1298.344,115.416,1322.621,90.4,1361.512,90.4z M1360.763,187.5
			c14.619,0,23.289-12.139,23.289-33.193c0-20.805-8.424-33.192-23.037-33.192c-15.11,0-23.782,12.14-23.782,33.192
			C1337.233,175.363,1345.904,187.5,1360.763,187.5z"/>
	</g>
</g>
<g>
	
		<radialGradient id="SVGID_1_" cx="-2048.5493" cy="907.4888" r="682.1824" gradientTransform="matrix(0.463 0 0 0.463 458.9865 -347.8439)" gradientUnits="userSpaceOnUse">
		<stop  offset="0" style="stop-color:#FFFFFF"/>
		<stop  offset="0.5" style="stop-color:#4C6B97"/>
		<stop  offset="1" style="stop-color:#231F20"/>
	</radialGradient>
	<ellipse fill="url(#SVGID_1_)" cx="-393.383" cy="154.309" rx="240.511" ry="126.456"/>
	<ellipse fill="#6181B6" cx="-393.383" cy="154.308" rx="231.116" ry="117.061"/>
	<g>
		<path fill="#FFFFFF" d="M-346.596,192.265l11.461-59c2.632-13.342,0.376-23.3-6.389-29.501
			c-6.577-6.012-17.851-9.019-34.386-9.019h-19.916l5.637-29.312c0.187-1.128,0-2.255-0.753-3.195
			c-0.75-0.939-1.69-1.315-2.818-1.315h-27.433c-1.879,0-3.383,1.315-3.758,3.007l-12.213,62.57
			c-1.128-7.14-3.759-13.153-8.269-18.039c-8.079-9.207-20.669-13.904-37.768-13.904H-536c-1.879,0-3.383,1.316-3.758,3.007
			l-24.615,127.021c-0.188,1.127,0,2.256,0.751,3.194s1.691,1.312,2.818,1.312h27.622c1.879,0,3.382-1.312,3.758-3.004l6.012-30.629
			h20.481c10.71,0,19.917-1.127,26.87-3.381c7.327-2.445,13.904-6.389,19.729-11.839c4.698-4.321,8.645-9.206,11.65-14.467
			l-4.886,25.367c-0.188,1.127,0,2.254,0.752,3.192c0.751,0.939,1.69,1.314,2.818,1.314h27.434c1.879,0,3.382-1.314,3.758-3.006
			l13.528-69.522h18.79c8.079,0,10.334,1.503,11.087,2.254c0.563,0.564,1.689,2.818,0.376,9.771l-10.899,56.183
			c-0.188,1.127,0,2.254,0.752,3.192s1.692,1.315,2.818,1.315h28.186C-348.475,195.271-346.972,193.958-346.596,192.265z
			 M-473.618,143.411c-1.69,8.831-4.884,15.219-9.582,18.789c-4.697,3.571-12.401,5.45-22.547,5.45h-12.214l8.831-45.472h15.784
			c11.649,0,16.348,2.442,18.227,4.509C-472.677,129.695-472.114,135.519-473.618,143.411z"/>
		<path fill="#FFFFFF" d="M-229.348,108.461c-8.079-9.207-20.669-13.904-37.767-13.904h-53.176c-1.879,0-3.384,1.316-3.758,3.007
			l-24.616,126.831c-0.187,1.129,0,2.256,0.753,3.195c0.75,0.938,1.689,1.316,2.818,1.316h27.621c1.88,0,3.382-1.316,3.759-3.007
			l6.011-30.629h20.482c10.71,0,19.916-1.127,26.869-3.383c7.328-2.44,13.905-6.388,19.729-11.837
			c4.886-4.51,9.019-9.582,12.026-15.031c3.005-5.45,5.261-11.463,6.576-18.039C-218.825,130.634-221.269,117.857-229.348,108.461z
			 M-258.096,143.411c-1.691,8.831-4.885,15.219-9.582,18.789c-4.697,3.571-12.402,5.45-22.548,5.45h-12.214l8.83-45.472h15.784
			c11.65,0,16.348,2.442,18.227,4.509C-256.969,129.695-256.405,135.519-258.096,143.411z"/>
	</g>
	<g>
		<path fill="#000004" d="M-493.346,118.421c10.522,0,17.475,1.879,21.045,5.823c3.569,3.946,4.321,10.522,2.442,19.918
			c-1.879,9.771-5.638,16.912-11.086,21.044c-5.449,4.135-13.717,6.202-24.802,6.202h-16.724l10.334-52.987H-493.346z
			 M-560.614,225.146h27.622l6.577-33.633h23.674c10.522,0,18.979-1.128,25.743-3.384c6.764-2.256,12.776-5.823,18.413-11.083
			c4.697-4.323,8.456-9.021,11.274-14.093c2.818-5.074,4.886-10.711,6.013-16.912c3.007-15.032,0.752-26.681-6.576-35.137
			c-7.328-8.455-18.979-12.589-34.949-12.589h-53.175L-560.614,225.146z"/>
		<path fill="#000004" d="M-421.005,64.681h27.434l-6.576,33.634h24.428c15.406,0,25.93,2.63,31.754,8.08
			c5.826,5.449,7.516,14.092,5.261,26.118l-11.461,59h-27.81l10.898-56.182c1.315-6.389,0.752-10.71-1.315-12.966
			c-2.066-2.254-6.764-3.569-13.717-3.569h-21.984l-14.093,72.717h-27.433L-421.005,64.681z"/>
		<path fill="#000004" d="M-277.826,118.421c10.521,0,17.475,1.879,21.045,5.823c3.569,3.946,4.321,10.522,2.442,19.918
			c-1.879,9.771-5.637,16.912-11.087,21.044c-5.448,4.135-13.716,6.202-24.801,6.202h-16.724l10.334-52.987H-277.826z
			 M-345.093,225.146h27.621l6.577-33.633h23.675c10.521,0,18.977-1.128,25.742-3.384c6.764-2.256,12.776-5.823,18.414-11.083
			c4.697-4.323,8.455-9.021,11.273-14.093c2.818-5.074,4.885-10.711,6.014-16.912c3.005-15.032,0.75-26.681-6.577-35.137
			c-7.328-8.455-18.979-12.589-34.95-12.589h-53.175L-345.093,225.146z"/>
	</g>
</g>
<g>
	<defs>
		<rect id="SVGID_2_" x="-71.717" y="-208.46" width="774.385" height="774.385"/>
	</defs>
	<clipPath id="SVGID_3_">
		<use xlink:href="#SVGID_2_"  overflow="visible"/>
	</clipPath>
	<g clip-path="url(#SVGID_3_)">
		<defs>
			<rect id="SVGID_4_" x="-71.717" y="-208.46" width="774.385" height="774.385"/>
		</defs>
		<clipPath id="SVGID_5_">
			<use xlink:href="#SVGID_4_"  overflow="visible"/>
		</clipPath>
		<path clip-path="url(#SVGID_5_)" fill="#699F63" d="M311.197,353.261c-1.884,0-3.759-0.493-5.407-1.447l-17.218-10.187
			c-2.57-1.438-1.313-1.947-0.466-2.244c3.43-1.189,4.124-1.464,7.785-3.541c0.38-0.214,0.887-0.132,1.28,0.099l13.227,7.854
			c0.478,0.266,1.156,0.266,1.596,0l51.567-29.763c0.479-0.273,0.788-0.827,0.788-1.396v-59.509c0-0.582-0.309-1.126-0.801-1.42
			l-51.545-29.737c-0.476-0.278-1.108-0.278-1.588,0l-51.531,29.746c-0.501,0.285-0.819,0.847-0.819,1.411v59.509
			c0,0.569,0.318,1.109,0.815,1.38l14.125,8.161c7.665,3.833,12.358-0.681,12.358-5.216v-58.754c0-0.833,0.667-1.487,1.498-1.487
			h6.538c0.819,0,1.495,0.654,1.495,1.487v58.754c0,10.229-5.57,16.096-15.27,16.096c-2.98,0-5.327,0-11.878-3.228l-13.521-7.784
			c-3.341-1.932-5.41-5.541-5.41-9.409v-59.509c0-3.866,2.069-7.476,5.41-9.397l51.565-29.798c3.263-1.846,7.6-1.846,10.837,0
			l51.561,29.798c3.34,1.93,5.417,5.531,5.417,9.397v59.509c0,3.868-2.077,7.464-5.417,9.409l-51.561,29.77
			C314.978,352.768,313.108,353.261,311.197,353.261"/>
		<path clip-path="url(#SVGID_5_)" fill="#699F63" d="M327.126,312.262c-22.564,0-27.292-10.356-27.292-19.043
			c0-0.828,0.664-1.488,1.491-1.488h6.666c0.745,0,1.366,0.536,1.481,1.264c1.007,6.786,4.008,10.212,17.654,10.212
			c10.863,0,15.488-2.458,15.488-8.22c0-3.324-1.312-5.79-18.194-7.441c-14.108-1.396-22.834-4.514-22.834-15.8
			c0-10.407,8.768-16.61,23.472-16.61c16.519,0,24.692,5.733,25.729,18.035c0.038,0.424-0.111,0.83-0.395,1.148
			c-0.282,0.295-0.675,0.474-1.092,0.474h-6.691c-0.695,0-1.309-0.492-1.449-1.162c-1.605-7.144-5.512-9.425-16.104-9.425
			c-11.861,0-13.239,4.13-13.239,7.228c0,3.751,1.626,4.842,17.64,6.961c15.847,2.095,23.375,5.061,23.375,16.199
			C352.834,305.829,343.466,312.262,327.126,312.262"/>
		<path clip-path="url(#SVGID_5_)" fill="#699F63" d="M401.48,249.854c0,5.468-4.471,9.938-9.937,9.938
			c-5.417,0-9.938-4.416-9.938-9.938c0-5.627,4.629-9.94,9.938-9.94C396.908,239.914,401.48,244.227,401.48,249.854
			 M383.211,249.825c0,4.63,3.732,8.363,8.306,8.363c4.628,0,8.362-3.812,8.362-8.363c0-4.624-3.786-8.305-8.362-8.305
			C386.995,241.52,383.211,245.145,383.211,249.825 M387.809,244.279h3.841c1.314,0,3.891,0,3.891,2.947
			c0,2.05-1.314,2.47-2.106,2.733c1.527,0.104,1.631,1.104,1.84,2.524c0.107,0.892,0.266,2.419,0.58,2.941h-2.365
			c-0.055-0.522-0.423-3.364-0.423-3.52c-0.155-0.633-0.369-0.947-1.157-0.947h-1.944v4.467h-2.158V244.279z M389.915,249.168h1.735
			c1.417,0,1.682-0.998,1.682-1.575c0-1.527-1.053-1.527-1.631-1.527h-1.786V249.168z"/>
		<path clip-path="url(#SVGID_5_)" fill-rule="evenodd" clip-rule="evenodd" fill="#333333" d="M151.517,120.438
			c0-2.375-1.25-4.56-3.301-5.738l-54.67-31.462c-0.923-0.543-1.96-0.827-3.01-0.87H89.97c-1.044,0.043-2.08,0.326-3.019,0.87
			l-54.67,31.462c-2.038,1.179-3.305,3.363-3.305,5.738l0.12,84.718c0,1.179,0.611,2.273,1.649,2.853
			c1.015,0.608,2.27,0.608,3.279,0l32.491-18.605c2.055-1.219,3.306-3.372,3.306-5.728v-39.582c0-2.358,1.249-4.544,3.296-5.715
			l13.834-7.969c1.033-0.596,2.159-0.886,3.311-0.886c1.125,0,2.282,0.29,3.283,0.886l13.831,7.969
			c2.047,1.171,3.302,3.357,3.302,5.715v39.582c0,2.355,1.267,4.522,3.309,5.728l32.482,18.605c1.02,0.608,2.292,0.608,3.301,0
			c1.006-0.579,1.64-1.674,1.64-2.853L151.517,120.438z"/>
		<path clip-path="url(#SVGID_5_)" fill-rule="evenodd" clip-rule="evenodd" fill="#333333" d="M414.572,3.976
			c-1.023-0.57-2.274-0.556-3.283,0.037c-1.008,0.593-1.629,1.676-1.629,2.847v83.9c0,0.823-0.441,1.587-1.154,2
			c-0.714,0.415-1.597,0.415-2.312,0L392.5,84.873c-2.043-1.177-4.555-1.177-6.597,0.003l-54.692,31.562
			c-2.045,1.18-3.304,3.359-3.304,5.718v63.138c0,2.361,1.259,4.539,3.302,5.721l54.688,31.588c2.044,1.18,4.562,1.18,6.605,0
			l54.7-31.588c2.042-1.182,3.301-3.359,3.301-5.721V27.905c0-2.394-1.296-4.602-3.388-5.768L414.572,3.976z M409.497,164.55
			c0,0.589-0.314,1.134-0.826,1.428l-18.779,10.824c-0.509,0.294-1.138,0.294-1.648,0l-18.777-10.824
			c-0.513-0.294-0.825-0.839-0.825-1.428v-21.683c0-0.588,0.312-1.135,0.824-1.431l18.777-10.847c0.512-0.294,1.141-0.294,1.652,0
			l18.777,10.847c0.51,0.296,0.824,0.842,0.824,1.431V164.55z"/>
		<path clip-path="url(#SVGID_5_)" fill-rule="evenodd" clip-rule="evenodd" fill="#333333" d="M596.686,142.299
			c2.033-1.182,3.286-3.355,3.286-5.71v-15.3c0-2.353-1.253-4.53-3.29-5.712l-54.339-31.55c-2.044-1.189-4.569-1.191-6.617-0.008
			l-54.673,31.562c-2.042,1.18-3.301,3.36-3.301,5.718v63.123c0,2.374,1.275,4.564,3.336,5.738l54.332,30.958
			c2.002,1.146,4.459,1.157,6.476,0.037l32.864-18.268c1.041-0.578,1.69-1.673,1.696-2.863c0.009-1.19-0.624-2.294-1.658-2.886
			l-55.019-31.578c-1.027-0.588-1.657-1.683-1.657-2.865v-19.782c0-1.18,0.628-2.271,1.651-2.86l17.124-9.873
			c1.02-0.587,2.278-0.587,3.296,0l17.132,9.873c1.023,0.589,1.653,1.68,1.653,2.86v15.564c0,1.182,0.631,2.274,1.654,2.863
			c1.023,0.591,2.286,0.587,3.306-0.008L596.686,142.299z"/>
		<path clip-path="url(#SVGID_5_)" fill-rule="evenodd" clip-rule="evenodd" fill="#699F63" d="M538.228,139.343
			c0.393-0.227,0.876-0.227,1.268,0l10.494,6.054c0.392,0.229,0.634,0.646,0.634,1.099v12.118c0,0.454-0.242,0.872-0.634,1.099
			l-10.494,6.056c-0.392,0.224-0.875,0.224-1.268,0l-10.486-6.056c-0.391-0.227-0.633-0.645-0.633-1.099v-12.118
			c0-0.454,0.242-0.871,0.633-1.099L538.228,139.343z"/>
	</g>
	<g clip-path="url(#SVGID_3_)">
		<defs>
			<path id="SVGID_6_" d="M236.431,84.347l-54.233,31.303c-2.029,1.169-3.277,3.332-3.277,5.671v62.659
				c0,2.341,1.248,4.502,3.274,5.674l54.233,31.33c2.028,1.17,4.527,1.17,6.556,0l54.244-31.33c2.028-1.172,3.276-3.333,3.276-5.674
				v-62.656c0-2.342-1.248-4.505-3.277-5.674l-54.246-31.303c-1.013-0.586-2.144-0.877-3.276-0.877
				C238.575,83.469,237.443,83.76,236.431,84.347"/>
		</defs>
		<clipPath id="SVGID_7_">
			<use xlink:href="#SVGID_6_"  overflow="visible"/>
		</clipPath>
		
			<linearGradient id="SVGID_8_" gradientUnits="userSpaceOnUse" x1="721.0186" y1="481.2056" x2="722.3091" y2="481.2056" gradientTransform="matrix(94.2039 0 0 -94.2039 -67743.7656 45484.2852)">
			<stop  offset="0" style="stop-color:#231F20"/>
			<stop  offset="0.0053" style="stop-color:#231F20"/>
			<stop  offset="0.2003" style="stop-color:#393738"/>
			<stop  offset="0.5457" style="stop-color:#5C5C5E"/>
			<stop  offset="0.8246" style="stop-color:#717375"/>
			<stop  offset="1" style="stop-color:#797B7D"/>
		</linearGradient>
		<rect x="178.921" y="83.469" clip-path="url(#SVGID_7_)" fill="url(#SVGID_8_)" width="121.582" height="138.686"/>
	</g>
	<g clip-path="url(#SVGID_3_)">
		<defs>
			<path id="SVGID_9_" d="M236.444,84.347l-54.246,31.303c-2.029,1.169-3.277,3.332-3.277,5.674v62.656
				c0,2.341,1.248,4.502,3.274,5.674l54.248,31.33c2.027,1.17,4.525,1.17,6.552,0l54.232-31.33c2.028-1.172,3.276-3.333,3.276-5.674
				v-62.659c0-2.339-1.248-4.502-3.276-5.671l-54.234-31.303c-1.013-0.586-2.144-0.877-3.275-0.877S237.457,83.76,236.444,84.347"/>
		</defs>
		<clipPath id="SVGID_10_">
			<use xlink:href="#SVGID_9_"  overflow="visible"/>
		</clipPath>
		<g opacity="0.66" clip-path="url(#SVGID_10_)">
			<g>
				<defs>
					<rect id="SVGID_11_" x="180.193" y="83.664" width="118.419" height="138.189"/>
				</defs>
				<clipPath id="SVGID_12_">
					<use xlink:href="#SVGID_11_"  overflow="visible"/>
				</clipPath>
				<path clip-path="url(#SVGID_12_)" fill="#B4B4B4" d="M296.953,115.649l-54.004-31.305c-0.541-0.312-1.119-0.534-1.713-0.681
					l-61.042,104.424c0.514,0.617,1.133,1.155,1.843,1.565l54.327,31.33c1.619,0.934,3.493,1.109,5.218,0.553l57.031-104.432
					C298.166,116.534,297.62,116.034,296.953,115.649"/>
			</g>
		</g>
	</g>
	<g clip-path="url(#SVGID_3_)">
		<defs>
			<path id="SVGID_13_" d="M239.315,83.48c-0.996,0.062-1.979,0.351-2.871,0.866l-53.728,31.003l58.367,106.331
				c0.611-0.145,1.207-0.37,1.772-0.696l54.117-31.33c2.025-1.172,3.017-3.333,3.017-5.674v-0.245L241.444,83.719
				c-0.587-0.164-1.192-0.247-1.796-0.247C239.537,83.472,239.426,83.474,239.315,83.48"/>
		</defs>
		<clipPath id="SVGID_14_">
			<use xlink:href="#SVGID_13_"  overflow="visible"/>
		</clipPath>
		
			<linearGradient id="SVGID_15_" gradientUnits="userSpaceOnUse" x1="721.2578" y1="481.2056" x2="722.5486" y2="481.2056" gradientTransform="matrix(97.1778 0 0 -97.1778 -69912.1562 46914.9609)">
			<stop  offset="0" style="stop-color:#797B7D"/>
			<stop  offset="0.1754" style="stop-color:#717375"/>
			<stop  offset="0.4543" style="stop-color:#5C5C5E"/>
			<stop  offset="0.7997" style="stop-color:#393738"/>
			<stop  offset="0.9947" style="stop-color:#231F20"/>
			<stop  offset="1" style="stop-color:#231F20"/>
		</linearGradient>
		<rect x="182.716" y="83.472" clip-path="url(#SVGID_14_)" fill="url(#SVGID_15_)" width="117.272" height="138.208"/>
	</g>
</g>
</svg>
