<?xml version="1.0" encoding="utf-8"?>
<!-- Generator: Adobe Illustrator 15.0.0, SVG Export Plug-In . SVG Version: 6.00 Build 0)  -->
<!DOCTYPE svg PUBLIC "-//W3C//DTD SVG 1.1//EN" "http://www.w3.org/Graphics/SVG/1.1/DTD/svg11.dtd">
<svg version="1.1" id="Layer_1" xmlns="http://www.w3.org/2000/svg" xmlns:xlink="http://www.w3.org/1999/xlink" x="0px" y="0px"
	 width="899.933px" height="181.557px" viewBox="-145 306 899.933 181.557" enable-background="new -145 306 899.933 181.557"
	 xml:space="preserve">
<g>
	<path fill="#9C5C8F" d="M-142.745,323.277c4.18-10.12,14.67-17.27,25.66-17.25c82.67-0.03,165.34,0.01,248.009-0.02
		c7.17-0.16,14.35,2.51,19.64,7.36c6.06,5.42,9.51,13.52,9.34,21.64c-0.03,31.69,0.06,63.369-0.04,95.061
		c-0.06,14.318-12.57,27.1-26.88,27.489c-30.15,0.131-60.31,0.011-90.459,0.061c4.05,9.979,8.15,19.95,12.2,29.939
		c-17.96-9.891-35.74-20.131-53.8-29.811c-39.66-0.35-79.35,0.03-119.02-0.2c-14.29-0.398-26.75-13.17-26.83-27.46
		c-0.121-31.02,0-62.049-0.06-93.079C-145.095,332.347-144.655,327.587-142.745,323.277L-142.745,323.277z"/>
	<path fill="#FFFFFF" d="M-21.485,325.587c4.58-4.87,13.27-3.29,16.65,2.22c1.83,2.89,1.99,6.75,0.52,9.83
		c-6.37,12.53-9.03,26.49-11.48,40.21c-2.9,17.89-5.31,36.009-4.37,54.168c0.26,4.631-1.98,10.25-6.95,11.33
		c-4.7,1.05-8.98-2.029-11.93-5.351c-13.5-14.521-21.14-33.33-26.65-52.099c-5.57,10.99-11.16,21.979-16.56,33.059
		c-3.78,7.49-7.77,15.13-13.81,21.08c-2.55,2.529-6.86,4.819-10.15,2.22c-4.95-4.329-6.17-11.229-8.271-17.159
		c-7.97-27.49-12.49-55.82-17.12-84.02c-1.06-4.7,0.91-10.33,5.6-12.21c3.79-1.419,8.64-1.62,11.87,1.17
		c2.25,2.01,2.87,5.12,3.29,7.96c3.25,21.83,7.12,43.59,12.39,65.029c9.03-17.12,18.01-34.27,27.01-51.411
		c1.34-2.51,2.939-5.03,5.4-6.59c3.29-2.11,8.17-1.96,10.92,0.99c2.31,2.42,3.08,5.79,3.72,8.97c2.69,14.17,6.33,28.2,11.62,41.629
		c2.28-20.239,5.07-40.729,12.46-59.839C-25.655,332.927-24.185,328.857-21.485,325.587L-21.485,325.587z M29.275,336.427
		c9.72-1.19,20.21,2.04,26.83,9.43c5.4,6.11,8.43,14.04,9.45,22.06c1.65,13.72-0.82,27.98-7.42,40.149
		c-3.73,6.938-8.61,13.59-15.49,17.67c-10.08,6.12-23.6,5.37-33.34-1.09c-7.78-5.33-12.15-14.41-13.93-23.461
		c-3.58-20.479,2.54-43.31,18.05-57.608C17.875,339.737,23.425,337.137,29.275,336.427L29.275,336.427z M31.305,357.497
		c-4.67,1.55-7.62,5.83-10.13,9.81c-6.29,10.13-8.11,23.49-3.05,34.509c1.33,2.898,3.47,5.949,6.84,6.56
		c3.58,0.59,6.91-1.46,9.52-3.688c5.75-4.932,8.61-12.339,10-19.609c1.56-8.28,0.76-17.45-4.1-24.54
		C38.435,357.647,34.605,356.337,31.305,357.497L31.305,357.497z M107.265,336.447c9.5-1.18,19.81,1.75,26.459,8.84
		c5.95,6.419,9.17,15.01,10.08,23.64c1.4,13.26-1.04,26.97-7.33,38.761c-3.78,7.13-8.77,13.989-15.85,18.14
		c-9.68,5.8-22.46,5.271-32.05-0.45c-6.48-3.898-10.79-10.56-13.27-17.56c-6.8-21.409-1.06-46.601,14.61-62.759
		C94.615,340.477,100.715,337.267,107.265,336.447L107.265,336.447z M109.325,357.527c-5.1,1.82-8.16,6.69-10.81,11.11
		c-5.74,10.12-7.15,23.15-1.96,33.779c1.4,2.94,3.88,5.9,7.39,6.061c3.82,0.141,7.11-2.279,9.76-4.779
		c5.771-5.69,8.41-13.819,9.33-21.709c0.95-7.39-0.28-15.33-4.58-21.53C116.485,357.567,112.615,356.337,109.325,357.527
		L109.325,357.527z"/>
	<path d="M211.255,339.257c8.29-1.83,17.01-1.58,25.26,0.34c0.03,6.75,0,13.5,0.021,20.25c-6.77-1.63-14.34-3.16-20.91,0.01
		c-7.85,3.84-12.14,12.69-12.22,21.19c-0.44,8.47,2.38,17.899,9.88,22.659c6.89,4.561,15.69,3.59,23.25,1.42
		c-0.02,6.75,0,13.5-0.021,20.25c-10,2.9-20.93,2.54-30.69-1.09c-11.72-4.399-21.05-14.521-24.62-26.51
		c-2.7-9.1-3.05-18.959-0.86-28.209C183.875,354.727,196.405,342.567,211.255,339.257L211.255,339.257z M272.175,338.257
		c10.2-1.14,21.3,0.43,29.54,6.97c7.95,6.17,11.92,16.12,13.3,25.84c1.4,10.64,1.091,21.71-2.199,31.989
		c-2.801,8.73-8.66,16.802-17.101,20.771c-8.579,4.04-18.58,4.311-27.71,2.25c-8.46-1.899-15.91-7.51-20.11-15.08
		c-5.81-10.21-6.87-22.329-6.42-33.849c0.48-9.94,2.99-20.3,9.67-27.96C256.386,342.957,264.146,339.167,272.175,338.257
		L272.175,338.257z M275.315,357.617c-4.38,1.11-6.86,5.43-7.96,9.5c-2.17,8.05-1.801,16.52-1.25,24.76
		c0.529,4.45,1.01,9.369,4.18,12.839c4.21,4.791,12.67,4.142,16.54-0.76c2.56-3.14,3.22-7.279,3.81-11.159
		c0.82-6.94,1.03-14-0.029-20.92c-0.74-4.15-1.891-8.53-4.94-11.63C283.045,357.527,278.905,356.697,275.315,357.617
		L275.315,357.617z M675.354,339.607c8.659-2.27,17.841-1.94,26.551-0.08c0.199,6.77,0.04,13.55,0.09,20.32
		c-6.63-1.59-13.95-3.08-20.44-0.22c-7.459,3.4-11.979,11.4-12.56,19.39c-0.919,8.96,1.55,19.259,9.45,24.5
		c6.92,4.761,15.89,3.83,23.55,1.609c-0.09,6.8,0.2,13.61-0.16,20.4c-10.66,2.77-22.27,2.398-32.43-2.011
		c-11.16-4.859-19.811-14.939-23.021-26.659c-2.46-9-2.739-18.681-0.471-27.75C649.465,354.927,661.254,343.287,675.354,339.607
		L675.354,339.607z M328.475,340.277c9.641-0.02,19.29-0.02,28.939,0c3.49,15.64,6.811,31.33,9.71,47.09
		c2.761-15.83,6.471-31.47,10.2-47.09c9.891-0.02,19.779-0.01,29.681-0.01c3.84,28.31,7.66,56.62,11.47,84.929
		c-7.569,0.01-15.13,0.01-22.699,0c-2.101-19.392-3.96-38.799-6.181-58.179c-4.59,19.42-9.43,38.779-14.109,58.179
		c-5.159,0.02-10.33,0.01-15.49,0c-4.949-19.42-9.819-38.869-14.811-58.279c-1.949,19.43-3.88,38.859-5.85,58.289
		c-7.229-0.01-14.471,0.01-21.7-0.01C321.234,396.887,324.864,368.587,328.475,340.277L328.475,340.277z M432.275,340.267
		c9.648,0.01,19.299-0.02,28.959,0.01c3.479,15.62,6.771,31.28,9.689,47.021c2.8-15.801,6.47-31.43,10.21-47.03
		c9.852,0,19.71,0,29.561,0c3.83,28.31,7.649,56.62,11.46,84.929c-7.561,0.02-15.12-0.01-22.681,0.02
		c-2.1-19.398-4.061-38.799-6.13-58.199c-4.72,19.39-9.35,38.799-14.069,58.189c-5.159-0.01-10.311,0-15.46,0
		c-4.949-19.439-9.87-38.889-14.811-58.339c-1.979,19.44-3.891,38.889-5.86,58.329c-7.238,0.01-14.47,0.01-21.71,0
		C425.045,396.887,428.665,368.577,432.275,340.267L432.275,340.267z M528.615,340.547c15.488-0.35,30.999-0.05,46.499-0.15
		c0.03,6.03-0.021,12.05,0.03,18.08c-7.82,0.09-15.642,0.01-23.461,0.05c-0.01,5.18-0.01,10.36,0,15.54
		c6.771,0.02,13.54,0,20.311,0.01c0.001,5.87,0.011,11.73,0,17.59c-6.771,0.01-13.54-0.01-20.311,0.01
		c-0.01,5.18-0.01,10.369,0,15.549c7.851,0.021,15.711,0,23.561,0.011c0,6.029,0.01,12.06,0,18.09c-15.5,0.01-31,0.01-46.49,0
		C528.654,397.066,528.925,368.797,528.615,340.547L528.615,340.547z M581.814,340.267c9.699,0.04,19.399-0.08,29.1,0.06
		c9.141,0.29,18.83,2.57,25.65,9.04c6.159,5.73,8.289,15.08,5.899,23.05c-1.89,6.48-6.751,11.74-12.819,14.58
		c6.069,12.749,12.198,25.459,18.27,38.199c-8.069,0.01-16.14,0-24.199,0.01c-6.33-13-12.461-26.11-18.87-39.069
		c-0.159,13.019-0.021,26.04-0.069,39.059c-7.66,0.01-15.311,0.01-22.96,0C581.805,396.887,581.805,368.577,581.814,340.267
		L581.814,340.267z M604.665,356.597c-0.021,6.75-0.021,13.51-0.001,20.27c4.15-0.29,8.66-0.45,12.189-2.96
		c4.061-2.93,3.62-9.2,1.061-12.98C614.745,357.047,609.234,356.967,604.665,356.597L604.665,356.597z M708.424,340.287
		c15.471-0.04,30.94,0,46.41-0.02c0.01,6.04,0,12.08,0,18.12c-7.85,0.01-15.7,0-23.55,0.01c-0.01,5.17-0.01,10.34-0.01,15.52
		c6.77,0.02,13.54-0.01,20.31,0.01c0,5.87,0.01,11.75,0,17.621c-6.77,0-13.53,0-20.29,0c-0.03,5.179-0.02,10.359-0.01,15.549
		c7.88,0.021,15.76,0,23.648,0.011c0,6.028,0,12.06-0.01,18.1c-15.489,0-30.99,0-46.479-0.01
		C708.414,396.896,708.444,368.587,708.424,340.287L708.424,340.287z"/>
</g>
</svg>
